<svg width="284" height="499" viewBox="0 0 284 499" fill="none" xmlns="http://www.w3.org/2000/svg">
<path d="M91.5081 393.997C24.1034 357.618 56.901 410.313 81.7254 441.208L154.828 476.356C161.807 464.061 158.913 430.375 91.5081 393.997Z" fill="#258450" stroke="#45AF75"/>
<path d="M211.353 393.997C278.757 357.618 245.96 410.313 221.135 441.208L148.033 476.356C141.054 464.061 143.948 430.375 211.353 393.997Z" fill="#258450" stroke="#45AF75"/>
<rect x="142" y="168" width="15" height="300" fill="#258450"/>
<path d="M183.985 92.5843C177.015 111.158 168.802 127.241 161.167 138.228C157.347 143.725 153.689 147.922 150.421 150.521C147.124 153.142 144.367 154.028 142.274 153.243C140.181 152.457 138.688 149.976 137.93 145.833C137.178 141.726 137.184 136.158 137.924 129.506C139.402 116.208 143.797 98.6923 150.768 80.1186C157.738 61.545 165.951 45.462 173.586 34.475C177.406 28.9782 181.064 24.7809 184.332 22.1823C187.629 19.5608 190.385 18.6745 192.479 19.4601C194.572 20.2457 196.065 22.7269 196.823 26.8699C197.575 30.9768 197.569 36.5448 196.829 43.1974C195.351 56.4948 190.956 74.0106 183.985 92.5843Z" fill="#E38686" stroke="#E38686"/>
<path d="M139.838 210.225C132.868 228.799 124.654 244.882 117.019 255.869C113.2 261.366 109.541 265.563 106.273 268.162C102.977 270.783 100.22 271.669 98.1267 270.884C96.0333 270.098 94.5402 267.617 93.7821 263.474C93.0307 259.367 93.0368 253.799 93.7764 247.147C95.2547 233.849 99.6499 216.333 106.62 197.76C113.59 179.186 121.804 163.103 129.439 152.116C133.258 146.619 136.917 142.422 140.185 139.823C143.481 137.202 146.238 136.316 148.331 137.101C150.425 137.887 151.918 140.368 152.676 144.511C153.427 148.618 153.421 154.186 152.682 160.838C151.203 174.136 146.808 191.652 139.838 210.225Z" fill="#E38686" stroke="#E38686"/>
<path d="M202.886 144.587C221.46 151.557 237.543 159.771 248.53 167.406C254.026 171.225 258.224 174.884 260.822 178.152C263.444 181.448 264.33 184.205 263.545 186.298C262.759 188.392 260.278 189.885 256.135 190.643C252.028 191.394 246.46 191.388 239.807 190.649C226.51 189.17 208.994 184.775 190.42 177.805C171.847 170.835 155.764 162.621 144.777 154.987C139.28 151.167 135.083 147.508 132.484 144.24C129.863 140.944 128.976 138.187 129.762 136.094C130.547 134 133.029 132.507 137.172 131.749C141.279 130.998 146.847 131.004 153.499 131.743C166.797 133.222 184.312 137.617 202.886 144.587Z" fill="#E38686" stroke="#E38686"/>
<path d="M92.834 103.288C111.408 110.258 127.491 118.471 138.478 126.106C143.974 129.926 148.172 133.585 150.77 136.852C153.392 140.149 154.278 142.906 153.493 144.999C152.707 147.092 150.226 148.586 146.083 149.344C141.976 150.095 136.408 150.089 129.755 149.349C116.458 147.871 98.942 143.476 80.3684 136.506C61.7947 129.536 45.7117 121.322 34.7247 113.687C29.228 109.867 25.0307 106.209 22.4321 102.941C19.8106 99.6446 18.9243 96.8878 19.7099 94.7944C20.4955 92.7011 22.9766 91.2079 27.1197 90.4499C31.2265 89.6985 36.7945 89.7046 43.4471 90.4442C56.7446 91.9225 74.2604 96.3177 92.834 103.288Z" fill="#E38686" stroke="#E38686"/>
<path d="M211.533 131.06C193.473 139.264 176.302 144.843 163.147 147.238C156.565 148.436 151.018 148.832 146.877 148.375C142.699 147.914 140.134 146.608 139.219 144.593C138.304 142.578 139.008 139.788 141.409 136.338C143.789 132.919 147.737 129.001 152.969 124.832C163.427 116.501 178.926 107.239 196.986 99.0355C215.046 90.8315 232.217 85.2522 245.372 82.8575C251.953 81.6594 257.501 81.2638 261.642 81.7208C265.82 82.182 268.385 83.4878 269.3 85.5024C270.215 87.5171 269.511 90.3079 267.11 93.758C264.73 97.1769 260.782 101.095 255.55 105.263C245.092 113.595 229.593 122.856 211.533 131.06Z" fill="#E38686" stroke="#E38686"/>
<path d="M100.499 89.3932C108.703 107.453 117.964 122.952 126.296 133.41C130.464 138.642 134.382 142.59 137.801 144.97C141.251 147.371 144.042 148.075 146.057 147.16C148.071 146.245 149.377 143.68 149.838 139.502C150.295 135.361 149.9 129.813 148.701 123.232C146.307 110.077 140.727 92.9057 132.523 74.8457C124.32 56.7857 115.058 41.2871 106.726 30.8289C102.558 25.5967 98.6403 21.649 95.2214 19.2692C91.7713 16.8677 88.9805 16.1637 86.9658 17.0788C84.9512 17.994 83.6454 20.559 83.1842 24.7372C82.7272 28.8777 83.1228 34.4254 84.3208 41.0069C86.7156 54.162 92.2949 71.3332 100.499 89.3932Z" fill="#E38686" stroke="#E38686"/>
<path d="M194.173 200.719C185.97 182.659 176.708 167.16 168.376 156.702C164.208 151.47 160.29 147.522 156.871 145.143C153.421 142.741 150.631 142.037 148.616 142.952C146.601 143.867 145.295 146.432 144.834 150.611C144.377 154.751 144.773 160.299 145.971 166.88C148.366 180.035 153.945 197.207 162.149 215.267C170.353 233.327 179.614 248.825 187.946 259.283C192.114 264.516 196.032 268.463 199.451 270.843C202.901 273.245 205.692 273.949 207.707 273.033C209.721 272.118 211.027 269.553 211.488 265.375C211.945 261.235 211.55 255.687 210.352 249.105C207.957 235.95 202.377 218.779 194.173 200.719Z" fill="#E38686" stroke="#E38686"/>
<path d="M91.4335 184.339C73.3735 192.543 56.2023 198.123 43.0472 200.517C36.4657 201.715 30.9179 202.111 26.7775 201.654C22.5993 201.193 20.0343 199.887 19.1191 197.872C18.2039 195.858 18.908 193.067 21.3095 189.617C23.6893 186.198 27.637 182.28 32.8692 178.112C43.3273 169.78 58.826 160.519 76.886 152.315C94.946 144.111 112.117 138.532 125.272 136.137C131.854 134.939 137.402 134.543 141.542 135C145.72 135.461 148.285 136.767 149.2 138.782C150.116 140.796 149.411 143.587 147.01 147.037C144.63 150.456 140.682 154.374 135.45 158.542C124.992 166.874 109.493 176.135 91.4335 184.339Z" fill="#E38686" stroke="#E38686"/>
</svg>
